<?xml version="1.0" encoding="UTF-8"?>
<svg width="512" height="512" viewBox="0 0 512 512" fill="none" xmlns="http://www.w3.org/2000/svg">
  <!-- Background Circle -->
  <circle cx="256" cy="256" r="248" fill="#4CAF50" stroke="#388E3C" stroke-width="16"/>
  
  <!-- Stethoscope -->
  <path d="M320 160C320 142.33 305.67 128 288 128H224C206.33 128 192 142.33 192 160V224" stroke="white" stroke-width="24" stroke-linecap="round"/>
  <path d="M192 224C192 224 192 272 144 272C96 272 96 224 96 224" stroke="white" stroke-width="24" stroke-linecap="round"/>
  <path d="M144 272V352C144 387.35 172.65 416 208 416H304C339.35 416 368 387.35 368 352V256" stroke="white" stroke-width="24" stroke-linecap="round"/>
  <circle cx="368" cy="224" r="32" fill="white" stroke="#388E3C" stroke-width="16"/>
  
  <!-- Llama Head Silhouette -->
  <path d="M288 160C288 160 304 176 304 208C304 240 288 256 288 256C288 256 272 272 256 272C240 272 224 256 224 256C224 256 208 240 208 208C208 176 224 160 224 160" fill="#9C27B0" stroke="white" stroke-width="8"/>
  
  <!-- Cross Symbol -->
  <path d="M256 184V232" stroke="white" stroke-width="12" stroke-linecap="round"/>
  <path d="M232 208H280" stroke="white" stroke-width="12" stroke-linecap="round"/>
</svg> 